<svg width="20" height="20" viewBox="0 0 20 20" fill="none" xmlns="http://www.w3.org/2000/svg">
<path fill-rule="evenodd" clip-rule="evenodd" d="M2.41602 3.3337C2.41602 3.01153 2.67718 2.75037 2.99935 2.75037H16.9994C17.3215 2.75037 17.5827 3.01153 17.5827 3.3337V17.0004C17.5827 17.3225 17.3215 17.5837 16.9994 17.5837H2.99935C2.67718 17.5837 2.41602 17.3225 2.41602 17.0004V3.3337ZM3.58268 3.91703V16.417H16.416V3.91703H3.58268Z" fill="#51565C"/>
<path fill-rule="evenodd" clip-rule="evenodd" d="M10.5827 11.9169L10.5827 15.3335L9.41602 15.3335L9.41602 11.9169L10.5827 11.9169Z" fill="#51565C"/>
<path fill-rule="evenodd" clip-rule="evenodd" d="M8.2487 3.33374V7.00041C8.2487 7.9669 9.0322 8.75041 9.9987 8.75041C10.9652 8.75041 11.7487 7.9669 11.7487 7.00041V3.33374H12.9154V7.00041C12.9154 8.61124 11.6095 9.91707 9.9987 9.91707C8.38787 9.91707 7.08203 8.61124 7.08203 7.00041V3.33374H8.2487Z" fill="#51565C"/>
<path fill-rule="evenodd" clip-rule="evenodd" d="M3.58268 3.33374V7.00041C3.58268 7.9669 4.36618 8.75041 5.33268 8.75041C6.29918 8.75041 7.08268 7.9669 7.08268 7.00041V3.33374H8.24935V7.00041C8.24935 8.61124 6.94351 9.91707 5.33268 9.91707C3.72185 9.91707 2.41602 8.61124 2.41602 7.00041V3.33374H3.58268Z" fill="#51565C"/>
<path fill-rule="evenodd" clip-rule="evenodd" d="M12.9167 3.33374V7.00041C12.9167 7.9669 13.7002 8.75041 14.6667 8.75041C15.6332 8.75041 16.4167 7.9669 16.4167 7.00041V3.33374H17.5833V7.00041C17.5833 8.61124 16.2775 9.91707 14.6667 9.91707C13.0558 9.91707 11.75 8.61124 11.75 7.00041V3.33374H12.9167Z" fill="#51565C"/>
</svg>
