<svg width="20" height="20" viewBox="0 0 20 20" fill="none" xmlns="http://www.w3.org/2000/svg">
<path fill-rule="evenodd" clip-rule="evenodd" d="M3.74967 3.74976C2.96727 3.74976 2.33301 4.38402 2.33301 5.16642V16.0831C2.33301 16.8655 2.96727 17.4998 3.74967 17.4998H16.2497C17.0321 17.4998 17.6663 16.8655 17.6663 16.0831V5.16642C17.6663 4.38402 17.0321 3.74976 16.2497 3.74976H3.74967ZM16.4996 8.33335H3.49959V15.7333C3.49959 16.0647 3.76822 16.3333 4.09959 16.3333H15.8996C16.231 16.3333 16.4996 16.0647 16.4996 15.7333V8.33335Z" fill="#171819"/>
<path fill-rule="evenodd" clip-rule="evenodd" d="M4.41634 4.91638L4.41634 2.24971L5.58301 2.24971L5.58301 4.91638L4.41634 4.91638Z" fill="#171819"/>
<path fill-rule="evenodd" clip-rule="evenodd" d="M14.4163 4.91638L14.4163 2.24971L15.583 2.24971L15.583 4.91638L14.4163 4.91638Z" fill="#171819"/>
</svg>
