<svg width="20" height="20" viewBox="0 0 20 20" fill="none" xmlns="http://www.w3.org/2000/svg">
<path fill-rule="evenodd" clip-rule="evenodd" d="M10.0007 3.74967C6.54887 3.74967 3.75065 6.54789 3.75065 9.99967C3.75065 13.4515 6.54887 16.2497 10.0007 16.2497C13.4524 16.2497 16.2507 13.4515 16.2507 9.99967C16.2507 6.54789 13.4524 3.74967 10.0007 3.74967ZM2.58398 9.99967C2.58398 5.90356 5.90454 2.58301 10.0007 2.58301C14.0968 2.58301 17.4173 5.90356 17.4173 9.99967C17.4173 14.0958 14.0968 17.4163 10.0007 17.4163C5.90454 17.4163 2.58398 14.0958 2.58398 9.99967Z" fill="#0064FF"/>
<path d="M11 7C11 7.55228 10.5523 8 10 8C9.44772 8 9 7.55228 9 7C9 6.44772 9.44772 6 10 6C10.5523 6 11 6.44772 11 7Z" fill="#0064FF"/>
<path fill-rule="evenodd" clip-rule="evenodd" d="M10.5833 9.33333L10.5833 14.1662H9.41667L9.41667 10.5415H9L9 9.33333H10.5833Z" fill="#0064FF"/>
</svg>
