<svg width="20" height="20" viewBox="0 0 20 20" fill="none" xmlns="http://www.w3.org/2000/svg">
<path fill-rule="evenodd" clip-rule="evenodd" d="M10.0009 17.5C14.143 17.5 17.5009 14.1421 17.5009 10C17.5009 5.85786 14.143 2.5 10.0009 2.5C5.85872 2.5 2.50085 5.85786 2.50085 10C2.50085 14.1421 5.85872 17.5 10.0009 17.5ZM10.4188 4.55847C10.7014 4.55847 10.9278 4.79249 10.9185 5.07493L10.7134 11.3045C10.708 11.4662 10.5754 11.5946 10.4135 11.5946H9.57955C9.41771 11.5946 9.28504 11.4662 9.27971 11.3045L9.07458 5.07493C9.06528 4.79249 9.29172 4.55847 9.57431 4.55847H10.4188ZM9.13071 13.8049C9.13071 13.4735 9.39934 13.2049 9.73071 13.2049H10.2623C10.5937 13.2049 10.8623 13.4735 10.8623 13.8049V14.2511C10.8623 14.5825 10.5937 14.8511 10.2623 14.8511H9.73071C9.39934 14.8511 9.13071 14.5825 9.13071 14.2511V13.8049Z" fill="#F24724"/>
</svg>
