<svg width="20" height="20" viewBox="0 0 20 20" fill="none" xmlns="http://www.w3.org/2000/svg">
<path fill-rule="evenodd" clip-rule="evenodd" d="M6.2132 12.9815H7.74913L8.78765 13.5292V16.6667C8.78765 17.1269 8.41455 17.5 7.95432 17.5H6.35895C5.95584 17.5 5.61053 17.2115 5.53888 16.8148L4.7959 12.7014C5.23261 12.8819 5.71128 12.9815 6.2132 12.9815ZM6.70709 16.25L6.11699 12.983H7.53765V16.25H6.70709Z" fill="#51565C"/>
<path fill-rule="evenodd" clip-rule="evenodd" d="M8.05834 11.7315L12.9167 14.2938V4.22005L7.89321 6.80557H6.21298C4.85271 6.80557 3.75 7.90829 3.75 9.26855C3.75 10.6288 4.85271 11.7315 6.21298 11.7315H8.05834ZM7.59041 5.55557H6.21298C4.16236 5.55557 2.5 7.21793 2.5 9.26855C2.5 11.3192 4.16236 12.9815 6.21298 12.9815H7.74891L13.189 15.8506C13.633 16.0848 14.1667 15.7629 14.1667 15.2609V3.26375C14.1667 2.76475 13.6386 2.44263 13.1949 2.67098L7.59041 5.55557Z" fill="#51565C"/>
<path fill-rule="evenodd" clip-rule="evenodd" d="M15.4533 11.6846C16.6149 11.4895 17.4999 10.4792 17.4999 9.26225C17.4999 8.04525 16.6149 7.03496 15.4533 6.83986V11.6846Z" fill="#51565C"/>
</svg>
