<svg width="30" height="30" viewBox="0 0 20 20" fill="none" xmlns="http://www.w3.org/2000/svg">
  <path fill-rule="evenodd" clip-rule="evenodd"
    d="M9.99967 3.75004C6.54789 3.75004 3.74967 6.54826 3.74967 10C3.74967 13.4518 6.54789 16.25 9.99967 16.25C13.4515 16.25 16.2497 13.4518 16.2497 10C16.2497 6.54826 13.4515 3.75004 9.99967 3.75004ZM2.58301 10C2.58301 5.90393 5.90356 2.58337 9.99967 2.58337C14.0958 2.58337 17.4163 5.90393 17.4163 10C17.4163 14.0962 14.0958 17.4167 9.99967 17.4167C5.90356 17.4167 2.58301 14.0962 2.58301 10Z"
    fill="#171819" />
  <path fill-rule="evenodd" clip-rule="evenodd" d="M6.875 9.45837H13.125V10.625H6.875V9.45837Z" fill="#171819" />
  <path fill-rule="evenodd" clip-rule="evenodd" d="M9.45801 13.125V6.875H10.6247V13.125H9.45801Z" fill="#171819" />
</svg>