<svg width="20" height="20" viewBox="0 0 20 20" fill="none" xmlns="http://www.w3.org/2000/svg">
<path fill-rule="evenodd" clip-rule="evenodd" d="M12.1032 8.73975C11.6237 9.37816 10.8603 9.79113 10.0004 9.79113C9.14073 9.79113 8.37748 9.37839 7.89797 8.74027C7.41846 9.37834 6.65523 9.79104 5.79562 9.79104C5.10032 9.79104 4.46809 9.52104 3.99805 9.08018L3.99805 15.9756L16.1461 15.9756L16.1461 8.93573C15.6656 9.46135 14.9743 9.79104 14.206 9.79104C13.3461 9.79104 12.5827 9.37811 12.1032 8.73975ZM10.5008 11.6667C10.6849 11.6667 10.8341 11.8159 10.8341 12V14.75C10.8341 14.9341 10.6849 15.0833 10.5008 15.0833H9.50077C9.31668 15.0833 9.16744 14.9341 9.16744 14.75V12C9.16744 11.8159 9.31668 11.6667 9.50077 11.6667H10.5008Z" fill="#171819"/>
<path fill-rule="evenodd" clip-rule="evenodd" d="M3.16699 3.85901C3.16699 3.56871 3.40233 3.33337 3.69263 3.33337H16.3079C16.5982 3.33337 16.8335 3.56871 16.8335 3.85901V16.1739C16.8335 16.4642 16.5982 16.6995 16.3079 16.6995H3.69263C3.40233 16.6995 3.16699 16.4642 3.16699 16.1739V3.85901ZM4.21826 4.38464V15.6483H15.7822V4.38464H4.21826Z" fill="#171819"/>
<path fill-rule="evenodd" clip-rule="evenodd" d="M8.42334 3.85901V7.163C8.42334 8.0339 9.12935 8.73991 10.0002 8.73991C10.8711 8.73991 11.5772 8.0339 11.5772 7.163V3.85901H12.6284V7.163C12.6284 8.6145 11.4518 9.79118 10.0002 9.79118C8.54875 9.79118 7.37207 8.6145 7.37207 7.163V3.85901H8.42334Z" fill="#171819"/>
<path fill-rule="evenodd" clip-rule="evenodd" d="M4.21826 3.85901V7.163C4.21826 8.0339 4.92427 8.73991 5.79517 8.73991C6.66607 8.73991 7.37208 8.0339 7.37208 7.163V3.85901H8.42335V7.163C8.42335 8.6145 7.24667 9.79118 5.79517 9.79118C4.34367 9.79118 3.16699 8.6145 3.16699 7.163V3.85901H4.21826Z" fill="#171819"/>
<path fill-rule="evenodd" clip-rule="evenodd" d="M12.6284 3.85901V7.163C12.6284 8.0339 13.3344 8.73991 14.2053 8.73991C15.0762 8.73991 15.7822 8.0339 15.7822 7.163V3.85901H16.8335V7.163C16.8335 8.6145 15.6568 9.79118 14.2053 9.79118C12.7538 9.79118 11.5771 8.6145 11.5771 7.163V3.85901H12.6284Z" fill="#171819"/>
</svg>
