<svg width="20" height="20" viewBox="0 0 20 20" fill="none" xmlns="http://www.w3.org/2000/svg">
<path fill-rule="evenodd" clip-rule="evenodd" d="M3.83286 4.41946C3.64909 4.43053 3.5 4.5816 3.5 4.76569V8.51909C3.5 11.8639 5.38924 14.9218 8.38047 16.4186L9.91785 17.0337C9.99733 17.0655 10.086 17.0655 10.1655 17.0337L11.7029 16.4186C14.6941 14.9218 16.5833 11.8639 16.5833 8.51909V4.76569C16.5833 4.5816 16.4345 4.4305 16.2507 4.41927C15.3536 4.3644 12.7787 4.07965 10.2152 2.60177C10.1083 2.54014 9.9753 2.54049 9.86869 2.60264C7.3317 4.08151 4.7353 4.36508 3.83286 4.41946ZM13.6355 8.14086L9.75458 11.9742C9.49503 12.2306 9.07763 12.2307 8.81791 11.9745L6.44884 9.63747L7.3852 8.68826L9.28579 10.5631L12.6985 7.19225L13.6355 8.14086Z" fill="#171819"/>
</svg>
