<svg width="20" height="20" viewBox="0 0 20 20" fill="none" xmlns="http://www.w3.org/2000/svg">
<path fill-rule="evenodd" clip-rule="evenodd" d="M6.08269 11.15L6.08269 17.7499L4.91602 17.7499L4.91602 3.58321C4.91601 3.33369 5.07472 3.1118 5.31085 3.03117L6.73896 2.54352C8.15101 2.06136 9.68422 2.06833 11.0918 2.56331C12.156 2.93754 13.3098 2.97423 14.3956 2.66836L15.5078 2.35506C15.6837 2.30553 15.8725 2.34122 16.0182 2.45149C16.1638 2.56176 16.2493 2.73388 16.2493 2.91654L16.2493 9.94588C16.2493 10.2071 16.0756 10.4365 15.8242 10.5074L14.6585 10.8357C13.3763 11.1969 12.0139 11.1536 10.7572 10.7117C9.57357 10.2955 8.28074 10.3123 7.10835 10.7591L6.08269 11.15Z" fill="#171819"/>
</svg>
