<svg width="12" height="12" viewBox="0 0 12 12" fill="none" xmlns="http://www.w3.org/2000/svg">
<path fill-rule="evenodd" clip-rule="evenodd" d="M1.40037 7.33301V10.5997C1.40037 10.7101 1.48992 10.7997 1.60037 10.7997H10.4004C10.5108 10.7997 10.6004 10.7101 10.6004 10.5997V7.33301H11.5337V10.5997C11.5337 11.2256 11.0263 11.733 10.4004 11.733H1.60037C0.97445 11.733 0.467041 11.2256 0.467041 10.5997V7.33301H1.40037Z" fill="#0064FF"/>
<path fill-rule="evenodd" clip-rule="evenodd" d="M6.46751 -4.07973e-08L6.46751 8.66667L5.53418 8.66667L5.53418 0L6.46751 -4.07973e-08Z" fill="#0064FF"/>
<path fill-rule="evenodd" clip-rule="evenodd" d="M6.33008 8.92972L9.33008 5.92972L8.67011 5.26976L6.00009 7.93977L3.33008 5.26976L2.67011 5.92972L5.67011 8.92972C5.85236 9.11197 6.14783 9.11197 6.33008 8.92972Z" fill="#0064FF"/>
</svg>
