<svg width="20" height="20" viewBox="0 0 20 20" fill="none" xmlns="http://www.w3.org/2000/svg">
<path fill-rule="evenodd" clip-rule="evenodd" d="M2.33301 5.16642C2.33301 4.38402 2.96727 3.74976 3.74967 3.74976H16.2497C17.0321 3.74976 17.6663 4.38402 17.6663 5.16642V16.0831C17.6663 16.8655 17.0321 17.4998 16.2497 17.4998H3.74967C2.96727 17.4998 2.33301 16.8655 2.33301 16.0831V5.16642ZM3.74967 4.91642C3.6116 4.91642 3.49967 5.02835 3.49967 5.16642V16.0831C3.49967 16.2212 3.6116 16.3331 3.74967 16.3331H16.2497C16.3877 16.3331 16.4997 16.2212 16.4997 16.0831V5.16642C16.4997 5.02835 16.3877 4.91642 16.2497 4.91642H3.74967Z" fill="#51565C"/>
<path fill-rule="evenodd" clip-rule="evenodd" d="M3.33301 7.74996L17.4997 7.74996V8.91663H3.33301V7.74996Z" fill="#51565C"/>
<path fill-rule="evenodd" clip-rule="evenodd" d="M4.41634 4.91638L4.41634 2.24971L5.58301 2.24971L5.58301 4.91638L4.41634 4.91638Z" fill="#51565C"/>
<path fill-rule="evenodd" clip-rule="evenodd" d="M14.4163 4.91638L14.4163 2.24971L15.583 2.24971L15.583 4.91638L14.4163 4.91638Z" fill="#51565C"/>
</svg>
