<svg width="20" height="20" viewBox="0 0 20 20" fill="none" xmlns="http://www.w3.org/2000/svg">
<path fill-rule="evenodd" clip-rule="evenodd" d="M9.73891 2.00144C9.92365 1.88959 10.1551 1.88897 10.3404 1.99981C11.8827 2.92214 13.4498 3.38629 14.6359 3.61895C15.2277 3.73503 15.721 3.79276 16.0636 3.82144C16.2348 3.83576 16.3681 3.84281 16.4569 3.84627C16.5012 3.848 16.5345 3.84883 16.5557 3.84923L16.5785 3.84957L16.5827 3.8496C16.9047 3.84976 17.166 4.11087 17.166 4.43293V8.51966C17.166 12.0854 15.152 15.3452 11.9632 16.9409L10.3021 17.7721C10.1377 17.8543 9.94429 17.8543 9.77998 17.7721L8.11878 16.9409C4.93002 15.3452 2.91602 12.0854 2.91602 8.51966V4.43293C2.91602 4.11077 3.17718 3.8496 3.49935 3.8496V4.43293C3.49935 3.8496 3.49949 3.8496 3.49935 3.8496M4.08268 4.98718C4.09522 4.98618 4.10794 4.98515 4.12084 4.98407C4.50282 4.95238 5.0428 4.88936 5.68503 4.76388C6.8899 4.52848 8.46926 4.07045 10.0427 3.17576C11.6316 4.07 13.2103 4.52821 14.4113 4.7638C15.051 4.88928 15.5873 4.95232 15.9663 4.98404C15.9775 4.98497 15.9885 4.98588 15.9993 4.98676V8.51966C15.9993 11.6436 14.2349 14.4996 11.4412 15.8975L10.041 16.5982L8.64086 15.8975C5.84716 14.4996 4.08268 11.6436 4.08268 8.51966V4.98718ZM3.49935 3.8496C3.49908 3.8496 3.4994 3.8496 3.49935 3.8496L3.50371 3.84957L3.52688 3.84923C3.54845 3.84883 3.58211 3.84799 3.62702 3.84626C3.71687 3.84279 3.85158 3.83574 4.02437 3.8214C4.3702 3.79271 4.86714 3.73495 5.46132 3.61886C6.65254 3.38613 8.21806 2.92218 9.73891 2.00144" fill="#51565C"/>
<path fill-rule="evenodd" clip-rule="evenodd" d="M9.69525 12.2489L13.5762 8.41559L12.7563 7.58555L9.28506 11.0142L7.32591 9.0816L6.50659 9.91216L8.87566 12.2492C9.10291 12.4734 9.46814 12.4732 9.69525 12.2489Z" fill="#51565C"/>
</svg>
