<svg width="20" height="20" viewBox="0 0 20 20" fill="none" xmlns="http://www.w3.org/2000/svg">
<path fill-rule="evenodd" clip-rule="evenodd" d="M4.73818 12.6771C3.42128 12.1065 2.5 10.7951 2.5 9.26852C2.5 7.21789 4.16236 5.55554 6.21298 5.55554H7.59048L13.1949 2.67098C13.6386 2.44263 14.1667 2.76475 14.1667 3.26375V15.2609C14.1667 15.7629 13.633 16.0848 13.189 15.8506L8.78743 13.5292V16.6666C8.78743 17.1269 8.41434 17.5 7.9541 17.5H6.35123C5.95147 17.5 5.60803 17.2161 5.53279 16.8235L4.73818 12.6771Z" fill="#171819"/>
<path fill-rule="evenodd" clip-rule="evenodd" d="M15.4531 11.6846C16.6147 11.4895 17.4997 10.4792 17.4997 9.26222C17.4997 8.04523 16.6147 7.03493 15.4531 6.83984V11.6846Z" fill="#171819"/>
</svg>
