<svg width="14" height="16" viewBox="0 0 14 16" fill="none" xmlns="http://www.w3.org/2000/svg">
<path fill-rule="evenodd" clip-rule="evenodd" d="M1.25033 9.58203V13.6654C1.25033 13.8034 1.36226 13.9154 1.50033 13.9154H12.5003C12.6384 13.9154 12.7503 13.8034 12.7503 13.6654V9.58203H13.917V13.6654C13.917 14.4478 13.2827 15.082 12.5003 15.082H1.50033C0.717922 15.082 0.0836601 14.4478 0.0836601 13.6654V9.58203H1.25033Z" fill="#51565C"/>
<path fill-rule="evenodd" clip-rule="evenodd" d="M7.58415 0.416016L7.58415 11.2493L6.41748 11.2493L6.41748 0.416016L7.58415 0.416016Z" fill="#51565C"/>
<path fill-rule="evenodd" clip-rule="evenodd" d="M7.41248 11.5791L11.1625 7.82915L10.3375 7.00419L7 10.3417L3.66248 7.00419L2.83752 7.82915L6.58752 11.5791C6.81533 11.807 7.18467 11.807 7.41248 11.5791Z" fill="#51565C"/>
</svg>
