<?xml version="1.0" encoding="iso-8859-1"?>
<!-- Uploaded to: SVG Repo, www.svgrepo.com, Generator: SVG Repo Mixer Tools -->
<svg fill="#000000" height="800px" width="800px" version="1.1" id="Capa_1" xmlns="http://www.w3.org/2000/svg" xmlns:xlink="http://www.w3.org/1999/xlink" 
	 viewBox="0 0 491.6 491.6" xml:space="preserve">
<g>
	<g>
		<g>
			<path d="M245.8,351.45c-41,0-74.5-33.2-74.5-74.5c0-41,33.2-74.5,74.5-74.5c41,0,74.5,33.2,74.5,74.5S286.8,351.45,245.8,351.45z
				"/>
			<path d="M482.6,116.25H87.4v-33.2H33.2v33.2H9c-5.1,0-9,3.9-9,9v303.5c0,5.1,3.9,9,9,9h473.6c5.1,0,9-3.9,9-9v-303.5
				C491.6,120.15,487.7,116.25,482.6,116.25z M245.8,393.95c-64.4,0-117-52.7-117-117s52.7-117,117-117s117,52.7,117,117
				S310.2,393.95,245.8,393.95z M422.5,200.85c-13.7,0-25-11.3-25-25s11.3-25,25-25s25,11.3,25,25S436.2,200.85,422.5,200.85z"/>
			<polygon points="313.3,53.85 178.3,53.85 163.5,96.35 328.1,96.35 			"/>
		</g>
	</g>
</g>
</svg>