<svg width="20" height="20" viewBox="0 0 20 20" fill="none" xmlns="http://www.w3.org/2000/svg">
<path fill-rule="evenodd" clip-rule="evenodd" d="M3.66699 6.59159C3.66699 5.80919 4.30126 5.17493 5.08366 5.17493H12.2862C13.0686 5.17493 13.7029 5.80919 13.7029 6.59159V15.7583C13.7029 16.5407 13.0686 17.1749 12.2862 17.1749H5.08366C4.30126 17.1749 3.66699 16.5407 3.66699 15.7583V6.59159ZM5.08366 6.34159C4.94559 6.34159 4.83366 6.45352 4.83366 6.59159V15.7583C4.83366 15.8963 4.94559 16.0083 5.08366 16.0083H12.2862C12.4243 16.0083 12.5362 15.8963 12.5362 15.7583V6.59159C12.5362 6.45352 12.4243 6.34159 12.2862 6.34159H5.08366Z" fill="#51565C"/>
<path fill-rule="evenodd" clip-rule="evenodd" d="M6.08398 4.24162C6.08398 3.45921 6.71825 2.82495 7.50065 2.82495H14.3341C15.3927 2.82495 16.2508 3.68307 16.2508 4.74162V13.5405C16.2508 14.3229 15.6166 14.9571 14.8341 14.9571H14.3439V13.7905H14.8341C14.9722 13.7905 15.0841 13.6785 15.0841 13.5405V4.74162C15.0841 4.3274 14.7484 3.99162 14.3341 3.99162H7.50065C7.36258 3.99162 7.25065 4.10355 7.25065 4.24162V4.58316H6.08398V4.24162Z" fill="#51565C"/>
</svg>
