<svg width="20" height="20" viewBox="0 0 20 20" fill="none" xmlns="http://www.w3.org/2000/svg">
<path d="M3.83301 6.58333C3.83301 5.84695 4.42996 5.25 5.16634 5.25H12.333C13.0694 5.25 13.6663 5.84695 13.6663 6.58333V15.6667C13.6663 16.403 13.0694 17 12.333 17H5.16634C4.42996 17 3.83301 16.403 3.83301 15.6667V6.58333Z" fill="#171819"/>
<path d="M7.58301 2.91663C6.89265 2.91663 6.33301 3.47627 6.33301 4.16663V4.41663H12.9997C13.8281 4.41663 14.4997 5.0882 14.4997 5.91663V14.8333H14.9163C15.6067 14.8333 16.1663 14.2736 16.1663 13.5833V4.74996C16.1663 3.73744 15.3455 2.91663 14.333 2.91663H7.58301Z" fill="#171819"/>
</svg>
