<svg width="32" height="32" viewBox="0 0 32 32" fill="none" xmlns="http://www.w3.org/2000/svg">
<circle cx="16" cy="16" r="16" fill="#EEF0F3"/>
<path d="M15.958 15.5266C17.8771 15.5266 19.4328 13.9723 19.4328 12.055C19.4328 10.1377 17.8771 8.58337 15.958 8.58337C14.0389 8.58337 12.4832 10.1377 12.4832 12.055C12.4832 13.9723 14.0389 15.5266 15.958 15.5266Z" fill="#BEC5CC"/>
<path d="M22.75 23.1011V21.6809C22.75 19.0664 20.6286 16.9469 18.0116 16.9469H13.905C11.2881 16.9469 9.16667 19.0664 9.16667 21.6809V23.1011C9.16667 23.2754 9.3081 23.4167 9.48256 23.4167H22.4341C22.6086 23.4167 22.75 23.2754 22.75 23.1011Z" fill="#BEC5CC"/>
</svg>
