<svg width="64" height="64" viewBox="0 0 64 64" fill="none" xmlns="http://www.w3.org/2000/svg">
<path d="M6.08008 15.1995C6.08008 10.958 9.51853 7.51953 13.7601 7.51953H50.2401C54.4816 7.51953 57.9201 10.958 57.9201 15.1995V48.7995C57.9201 53.0411 54.4816 56.4795 50.2401 56.4795H13.7601C9.51853 56.4795 6.08008 53.0411 6.08008 48.7995V15.1995Z" fill="#E0E2E8"/>
<path d="M6.08008 45.9974C6.08008 43.9985 6.8594 42.0784 8.25248 40.6449L13.8028 34.9338C15.6727 33.0096 18.7108 32.8554 20.766 34.5803L24.2418 37.4975C25.2757 38.3652 26.8057 38.2811 27.7382 37.3054L38.9629 25.5611C41.3954 23.016 45.4267 22.9134 47.9855 25.3316L55.5152 32.4475C57.0502 33.8982 57.9201 35.9171 57.9201 38.0293V48.8003C57.9201 53.0418 54.4816 56.4803 50.2401 56.4803H13.7601C9.51853 56.4803 6.08008 53.0418 6.08008 48.8003V45.9974Z" fill="#D4D9DE"/>
<path d="M27.52 20.1599C27.52 23.6062 24.7263 26.3999 21.28 26.3999C17.8338 26.3999 15.04 23.6062 15.04 20.1599C15.04 16.7137 17.8338 13.9199 21.28 13.9199C24.7263 13.9199 27.52 16.7137 27.52 20.1599Z" fill="#EEF0F3"/>
<path d="M54.558 6.22177C55.7942 4.98556 57.6068 4.79385 58.6066 5.79359C59.6063 6.79333 59.4146 8.60594 58.1784 9.84216L9.28186 58.7387C8.04564 59.9749 6.23303 60.1666 5.23329 59.1669C4.23355 58.1671 4.42525 56.3545 5.66147 55.1183L54.558 6.22177Z" fill="#BEC5CC"/>
</svg>
